HIERARCHY
ROOT Hips
{
	OFFSET -0.001795 -0.223333 0.028219
	CHANNELS 6 Xposition Yposition Zposition Zrotation Yrotation Xrotation 
	JOINT LeftUpLeg
	{
		OFFSET 0.069520 -0.091406 -0.006815
		CHANNELS 3 Zrotation Yrotation Xrotation
		JOINT LeftLeg
		{
			OFFSET 0.034277 -0.375199 -0.004496
			CHANNELS 3 Zrotation Yrotation Xrotation
			JOINT LeftFoot
			{
				OFFSET -0.013596 -0.397961 -0.043693
				CHANNELS 3 Zrotation Yrotation Xrotation
				JOINT LeftToe
				{
					OFFSET 0.026358 -0.055791 0.119288
					CHANNELS 3 Zrotation Yrotation Xrotation
					End Site
					{
						OFFSET 0.000000 0.000000 0.000000
					}
				}
			}
		}
	}
	JOINT RightUpLeg
	{
		OFFSET -0.067670 -0.090522 -0.004320
		CHANNELS 3 Zrotation Yrotation Xrotation
		JOINT RightLeg
		{
			OFFSET -0.038290 -0.382569 -0.008850
			CHANNELS 3 Zrotation Yrotation Xrotation
			JOINT RightFoot
			{
				OFFSET 0.015774 -0.398415 -0.042312
				CHANNELS 3 Zrotation Yrotation Xrotation
				JOINT RightToe
				{
					OFFSET -0.025372 -0.048144 0.123348
					CHANNELS 3 Zrotation Yrotation Xrotation
					End Site
					{
						OFFSET 0.000000 0.000000 0.000000
					}
				}
			}
		}
	}
	JOINT Spine
	{
		OFFSET -0.002533 0.108963 -0.026696
		CHANNELS 3 Zrotation Yrotation Xrotation
		JOINT Spine1
		{
			OFFSET 0.005487 0.135180 0.001092
			CHANNELS 3 Zrotation Yrotation Xrotation
			JOINT Spine2
			{
				OFFSET 0.001457 0.052922 0.025425
				CHANNELS 3 Zrotation Yrotation Xrotation
				JOINT Neck
				{
					OFFSET -0.002778 0.213870 -0.042857
					CHANNELS 3 Zrotation Yrotation Xrotation
					JOINT Head
					{
						OFFSET 0.005152 0.064970 0.051349
						CHANNELS 3 Zrotation Yrotation Xrotation
						End Site
						{
							OFFSET 0.000000 0.000000 0.000000
						}
					}
				}
				JOINT LeftShoulder
				{
					OFFSET 0.078845 0.121749 -0.034090
					CHANNELS 3 Zrotation Yrotation Xrotation
					JOINT LeftArm
					{
						OFFSET 0.090977 0.030469 -0.008868
						CHANNELS 3 Zrotation Yrotation Xrotation
						JOINT LeftForeArm
						{
							OFFSET 0.259612 -0.012772 -0.027456
							CHANNELS 3 Zrotation Yrotation Xrotation
							JOINT LeftHand
							{
								OFFSET 0.249234 0.008986 -0.001171
								CHANNELS 3 Zrotation Yrotation Xrotation
								End Site
								{
									OFFSET 0.000000 0.000000 0.000000
								}
							}
						}
					}
				}
				JOINT RightShoulder
				{
					OFFSET -0.081759 0.118833 -0.038615
					CHANNELS 3 Zrotation Yrotation Xrotation
					JOINT RightArm
					{
						OFFSET -0.096012 0.032551 -0.009143
						CHANNELS 3 Zrotation Yrotation Xrotation
						JOINT RightForeArm
						{
							OFFSET -0.253742 -0.013329 -0.021401
							CHANNELS 3 Zrotation Yrotation Xrotation
							JOINT RightHand
							{
								OFFSET -0.255298 0.007772 -0.005559
								CHANNELS 3 Zrotation Yrotation Xrotation
								End Site
								{
									OFFSET 0.000000 0.000000 0.000000
								}
							}
						}
					}
				}
			}
		}
	}
}
MOTION
Frames: 16
Frame Time: 0.050000
0.000000 0.945734 0.000000 -1.517176 -5.386271 23.838463 4.086642 -1.284407 -25.932832 2.373133 -0.255292 -0.036282 5.369026 12.852225 12.465972 0.000000 0.000000 0.000000 -0.673660 3.859081 -34.580494 0.753791 0.017330 2.227759 -1.065100 -9.178181 15.446282 0.000000 0.000000 0.000000 1.561202 -0.941571 16.785403 -0.253938 0.226273 -7.243003 -4.604058 3.487890 9.289175 8.265145 -2.088216 -26.189838 0.000000 0.000000 0.000000 20.935657 -28.599750 6.593619 23.865885 -55.360730 -14.616729 50.754743 -2.829557 -0.573855 0.000000 0.000000 0.000000 -21.184970 22.572472 5.380378 -35.931766 66.858297 -26.554662 -48.236924 2.973292 0.302432 0.000000 0.000000 0.000000 
0.001796 0.946305 -0.005855 -2.235397 -5.852124 24.634650 4.627759 -1.165037 -26.427526 2.417017 -0.204407 -1.102845 5.703894 13.338395 12.605317 0.000000 0.000000 0.000000 0.074192 4.243798 -35.749535 -0.107715 0.081001 1.610142 -0.901277 -9.636571 17.628058 0.000000 0.000000 0.000000 0.337698 -0.671822 17.959291 1.806251 -0.471723 -8.718615 -5.543071 6.807549 8.706125 10.974080 -3.748203 -21.980733 0.000000 0.000000 0.000000 22.240072 -27.610437 6.625032 26.948786 -55.453226 -17.162951 53.590091 -0.882413 0.064526 0.000000 0.000000 0.000000 -22.634578 20.281593 4.430744 -39.178674 68.051310 -27.763501 -48.233271 -4.961469 3.692137 0.000000 0.000000 0.000000 
0.003961 0.943712 -0.012263 -2.744253 -4.847632 23.514686 6.127801 -0.954740 -26.657090 1.408695 -0.193727 0.967460 5.004343 12.135113 10.953882 0.000000 0.000000 0.000000 0.126331 4.092612 -35.233706 0.490483 0.017410 1.544124 -1.135020 -9.744497 17.396201 0.000000 0.000000 0.000000 2.210960 -1.232870 19.111620 0.782887 -0.132992 -7.893713 -6.647395 8.098657 7.542342 12.181360 -5.168282 -17.278589 0.000000 0.000000 0.000000 22.199412 -27.558329 6.858766 24.646027 -54.346851 -16.163759 58.824482 -4.092555 -1.863201 0.000000 0.000000 0.000000 -23.465539 21.233472 4.289066 -37.984711 63.833973 -23.776336 -48.209879 -7.824408 4.969381 0.000000 0.000000 0.000000 
0.006385 0.942517 -0.018739 -2.581270 -3.435496 24.194807 5.902990 -1.123696 -28.262881 1.609287 -0.195678 0.551719 5.022313 12.517000 12.297572 0.000000 0.000000 0.000000 0.082873 4.086070 -36.391565 -0.162556 0.067056 1.197840 -1.795790 -11.117850 19.440678 0.000000 0.000000 0.000000 2.608489 -1.419753 19.550005 0.718454 -0.085526 -8.238926 -7.559623 9.388168 7.908937 13.357873 -5.751406 -16.989322 0.000000 0.000000 0.000000 23.312934 -27.908314 6.993807 27.596398 -53.720599 -17.959036 64.449157 -2.306482 -1.370772 0.000000 0.000000 0.000000 -24.995751 19.603399 3.484411 -39.006890 62.393681 -22.602148 -49.214225 -12.883907 7.368662 0.000000 0.000000 0.000000 
0.009110 0.940957 -0.024706 -2.249273 -2.320476 23.756020 5.737433 -1.253984 -28.388517 0.832088 -0.131561 1.134262 5.338248 13.085889 11.381936 0.000000 0.000000 0.000000 -1.272289 3.697163 -37.056121 0.815038 -0.003200 2.067012 -1.872953 -11.015574 19.589561 0.000000 0.000000 0.000000 2.698392 -1.566475 20.891443 0.331728 0.064504 -8.150381 -7.861562 10.606892 7.824698 15.175053 -7.487278 -14.256347 0.000000 0.000000 0.000000 21.717158 -29.357538 7.583996 25.951856 -53.085353 -17.406752 69.905760 -5.681885 -4.011952 0.000000 0.000000 0.000000 -23.411081 19.746993 3.565708 -36.378089 61.240979 -19.967079 -52.560365 -14.117057 8.835248 0.000000 0.000000 0.000000 
0.012190 0.940184 -0.029429 -2.063528 -0.962991 24.109341 5.482709 -1.440112 -29.326983 0.084003 -0.040663 0.956591 5.639203 13.823982 11.847387 0.000000 0.000000 0.000000 -2.150996 3.384782 -37.789097 1.348773 -0.045626 2.806519 -1.986427 -10.871025 19.343514 0.000000 0.000000 0.000000 2.710146 -1.659098 21.215005 0.556014 0.008191 -8.389877 -7.555478 11.572872 8.572390 15.149424 -7.146692 -15.004584 0.000000 0.000000 0.000000 19.840703 -29.395862 7.959253 22.863113 -54.201665 -16.869532 75.818685 -7.975710 -6.414999 0.000000 0.000000 0.000000 -23.545387 20.221376 3.442473 -31.218652 59.971673 -16.158851 -56.408702 -13.837717 9.863321 0.000000 0.000000 0.000000 
0.015137 0.940729 -0.032456 -1.659641 0.424658 24.182078 5.154707 -1.648265 -30.066317 -0.130658 -0.024362 1.144740 5.159702 13.267736 12.102611 0.000000 0.000000 0.000000 -3.266751 2.942736 -38.114956 1.947449 -0.112508 3.380381 -2.238956 -10.875926 18.724949 0.000000 0.000000 0.000000 2.729637 -1.720958 21.080135 0.289874 0.111499 -8.139923 -7.466439 11.086633 8.979676 15.392057 -6.952030 -16.175542 0.000000 0.000000 0.000000 16.954814 -29.433112 8.286940 17.207781 -56.592647 -15.031432 79.332736 -13.928718 -11.387691 0.000000 0.000000 0.000000 -21.395200 20.094135 3.790441 -27.119654 61.527214 -14.671866 -60.026773 -10.858763 9.259224 0.000000 0.000000 0.000000 
0.017983 0.941523 -0.032993 -1.861847 1.853904 24.137568 5.718694 -1.664133 -30.326048 -0.749259 0.052207 0.740751 4.863123 12.990858 12.351192 0.000000 0.000000 0.000000 -3.786940 2.619564 -37.894257 2.453255 -0.181375 3.733641 -1.956536 -10.064922 18.504114 0.000000 0.000000 0.000000 3.044693 -1.868859 20.939784 0.375392 0.098091 -8.219650 -7.418127 11.379346 8.775052 15.859068 -7.747062 -14.293619 0.000000 0.000000 0.000000 12.590057 -30.521772 9.005587 9.401534 -57.922514 -11.588463 80.466337 -22.028032 -18.172854 0.000000 0.000000 0.000000 -17.211114 20.673504 4.763355 -19.275858 64.040701 -11.164477 -64.033471 -3.826389 6.294890 0.000000 0.000000 0.000000 
0.020796 0.942228 -0.030166 -2.178008 3.021162 23.589486 5.819781 -1.718727 -30.025115 -0.860433 0.073156 0.318489 4.344441 12.337190 12.655277 0.000000 0.000000 0.000000 -3.408851 2.527236 -36.991527 1.789854 -0.087880 4.320533 -1.272889 -8.469427 17.564518 0.000000 0.000000 0.000000 3.449595 -1.956985 20.142207 0.361747 0.089380 -7.462518 -7.485702 10.699818 8.620997 15.304429 -7.341654 -14.471395 0.000000 0.000000 0.000000 9.356040 -30.120277 9.199536 0.032150 -58.906772 -6.922153 78.475660 -29.772110 -23.664840 0.000000 0.000000 0.000000 -13.801477 20.477710 5.451201 -7.433457 67.840584 -5.071006 -64.639919 3.860399 1.945085 0.000000 0.000000 0.000000 
0.024151 0.941939 -0.023736 -2.064018 4.614562 22.320897 5.568481 -1.794060 -28.374636 -1.236638 0.113130 0.030253 3.794247 11.443298 11.776388 0.000000 0.000000 0.000000 -3.466895 2.242586 -35.434659 1.303198 -0.006901 5.354821 -1.203980 -7.868753 16.835675 0.000000 0.000000 0.000000 3.762145 -2.030639 19.532326 0.667884 -0.001497 -7.522646 -7.493713 10.048905 9.518199 15.837791 -7.483197 -15.333564 0.000000 0.000000 0.000000 6.369426 -29.928955 9.372454 -9.318791 -59.195915 -2.228440 75.205696 -37.118230 -28.017068 0.000000 0.000000 0.000000 -11.010369 20.090850 5.876948 8.666068 69.357939 4.914212 -63.617989 11.457442 -2.414642 0.000000 0.000000 0.000000 
0.028251 0.940854 -0.014323 -1.849047 5.363839 21.143103 5.159949 -1.840860 -27.261218 -1.386639 0.109002 0.712168 3.936672 11.352655 9.992588 0.000000 0.000000 0.000000 -3.492169 2.066186 -33.473940 0.606054 0.104548 5.742958 -0.974174 -6.933335 15.220748 0.000000 0.000000 0.000000 4.065823 -2.015075 18.504147 0.269701 0.122635 -6.720852 -7.286045 8.577998 8.957762 14.402840 -6.786021 -14.820550 0.000000 0.000000 0.000000 2.988663 -29.834686 9.656914 -15.938061 -57.413383 1.457432 70.550089 -42.181643 -29.284971 0.000000 0.000000 0.000000 -8.179978 20.014323 6.474818 28.587316 69.043252 17.389344 -61.665308 19.055137 -6.589324 0.000000 0.000000 0.000000 
0.032874 0.939122 -0.003274 -1.355826 6.203517 19.579612 4.495184 -1.867734 -25.489352 -1.594852 0.109168 1.464593 3.169229 9.589760 8.055781 0.000000 0.000000 0.000000 -3.813486 1.805253 -30.987791 0.019367 0.209108 6.377350 -0.624486 -5.481773 12.662239 0.000000 0.000000 0.000000 4.251884 -1.914366 17.110239 0.293595 0.105772 -6.218772 -7.252503 7.399933 8.850115 14.455818 -6.234022 -17.202248 0.000000 0.000000 0.000000 1.677484 -29.454003 9.646429 -19.847063 -57.424806 3.506057 66.638080 -45.286763 -29.352764 0.000000 0.000000 0.000000 -5.816526 20.203551 7.004315 39.846836 66.964932 23.487186 -59.435452 24.037796 -9.006337 0.000000 0.000000 0.000000 
0.037538 0.938120 0.008535 -1.123706 6.312295 18.132098 4.185717 -1.802484 -24.036735 -1.562546 0.081376 2.466435 3.104303 8.953659 6.348832 0.000000 0.000000 0.000000 -4.051239 1.663525 -28.935068 -0.191675 0.266259 7.184187 -0.794270 -5.373741 11.055915 0.000000 0.000000 0.000000 4.400320 -1.741305 15.370820 -0.047775 0.252111 -6.516179 -6.664792 6.583111 9.091140 13.373210 -5.507117 -17.842528 0.000000 0.000000 0.000000 1.551982 -29.045895 9.524279 -19.195314 -57.907677 3.395637 65.721978 -44.495090 -28.258284 0.000000 0.000000 0.000000 -5.006266 20.428788 7.160000 45.258971 64.547181 25.355537 -59.780539 26.819193 -10.642162 0.000000 0.000000 0.000000 
0.041688 0.938990 0.020591 -1.118440 6.316946 16.601150 3.764093 -1.731509 -22.502512 -1.219627 -0.006090 4.178934 2.511099 7.221558 4.528924 0.000000 0.000000 0.000000 -4.143101 1.552490 -26.550136 0.022700 0.239205 7.617202 -0.849968 -4.927305 8.951567 0.000000 0.000000 0.000000 4.479581 -1.539906 13.523211 0.335947 0.126795 -6.905393 -6.843572 6.154708 8.496775 13.165917 -5.446849 -17.734493 0.000000 0.000000 0.000000 1.782785 -29.084290 9.478656 -16.613398 -58.381851 2.318254 64.904190 -42.782566 -26.773016 0.000000 0.000000 0.000000 -3.122167 21.296436 7.849149 41.574637 64.046472 22.418023 -58.728758 24.914207 -9.536972 0.000000 0.000000 0.000000 
0.045282 0.939621 0.032834 -1.056798 5.867477 15.290039 3.501436 -1.644647 -21.288337 -1.396167 -0.020299 5.562285 2.538948 6.815724 3.371712 0.000000 0.000000 0.000000 -4.074378 1.512134 -24.633730 -0.072685 0.281823 8.399295 -1.014454 -4.941446 7.526609 0.000000 0.000000 0.000000 4.465159 -1.272427 11.134860 -0.052526 0.271571 -6.884017 -6.327360 5.764936 7.576454 12.426703 -5.115279 -17.450759 0.000000 0.000000 0.000000 2.246298 -29.722391 9.631821 -11.153633 -59.158165 -0.117574 64.206067 -38.395572 -23.548681 0.000000 0.000000 0.000000 -2.197450 22.403152 8.400402 35.903924 64.517802 18.882402 -57.727275 21.637968 -7.867001 0.000000 0.000000 0.000000 
0.048301 0.941007 0.045478 -0.889798 5.363870 13.579445 2.745806 -1.539098 -19.173638 -1.250713 -0.079950 6.934573 2.000062 5.058314 1.725658 0.000000 0.000000 0.000000 -3.949988 1.434191 -22.037406 -0.497774 0.383700 8.978098 -1.123582 -4.825373 6.095617 0.000000 0.000000 0.000000 4.201310 -1.026149 9.299541 -0.134850 0.334249 -7.813507 -6.030215 5.109067 6.968232 11.841153 -4.366345 -19.550658 0.000000 0.000000 0.000000 3.474265 -29.350281 9.367830 -5.831216 -60.286651 -2.644082 60.507498 -33.499862 -18.918204 0.000000 0.000000 0.000000 -1.940756 23.699620 8.837875 27.695317 65.316875 13.951160 -54.931478 14.892715 -4.449115 0.000000 0.000000 0.000000 
